<!DOCTYPE svg PUBLIC "-//W3C//DTD SVG 1.1//EN" "http://www.w3.org/Graphics/SVG/1.1/DTD/svg11.dtd">
<!-- Uploaded to: SVG Repo, www.svgrepo.com, Transformed by: SVG Repo Mixer Tools -->
<svg fill="#0037fd" width="800px" height="800px" viewBox="0 0 512 512" id="_27_Rewind" data-name="27 Rewind" xmlns="http://www.w3.org/2000/svg" transform="matrix(-1, 0, 0, 1, 0, 0)" stroke="#0037fd">
<g id="SVGRepo_bgCarrier" stroke-width="0"/>
<g id="SVGRepo_tracerCarrier" stroke-linecap="round" stroke-linejoin="round"/>
<g id="SVGRepo_iconCarrier"> <g id="Group_70" data-name="Group 70"> <g id="Group_69" data-name="Group 69"> <path id="Path_35" data-name="Path 35" d="M256,0C114.625,0,0,114.625,0,256,0,397.391,114.625,512,256,512S512,397.391,512,256C512,114.625,397.375,0,256,0Zm0,448C149.969,448,64,362.031,64,256S149.969,64,256,64s192,85.969,192,192S362.031,448,256,448Z" fill-rule="evenodd"/> </g> </g> <path id="Path_36" data-name="Path 36" d="M128,256l128,96V280l96,72V160l-96,72V160Z" fill-rule="evenodd"/> </g>
</svg>